<svg width="216" height="215" viewBox="0 0 216 215" fill="none" xmlns="http://www.w3.org/2000/svg">
<g filter="url(#filter0_d_360_1411)">
<ellipse cx="108" cy="103.244" rx="104" ry="103.244" fill="white"/>
<path d="M211.5 103.244C211.5 159.984 165.165 205.987 108 205.987C50.8351 205.987 4.5 159.984 4.5 103.244C4.5 46.5033 50.8351 0.5 108 0.5C165.165 0.5 211.5 46.5033 211.5 103.244Z" stroke="url(#paint0_linear_360_1411)"/>
</g>
<g clip-path="url(#clip0_360_1411)">
<path d="M108.08 103.08C123.014 103.08 135.12 90.9738 135.12 76.04C135.12 61.1062 123.014 49 108.08 49C93.1463 49 81.04 61.1062 81.04 76.04C81.04 90.9738 93.1463 103.08 108.08 103.08Z" fill="#2F2E41"/>
<path d="M108.08 112.094C85.6896 112.119 67.5449 130.263 67.52 152.654C67.52 155.143 69.5377 157.16 72.0266 157.16H144.133C146.622 157.16 148.64 155.143 148.64 152.654C148.615 130.263 130.47 112.118 108.08 112.094Z" fill="#2F2E41"/>
</g>
<path d="M136.38 90.0082C129.844 92.9322 120.9 102.392 118.492 108.756C115.912 115.636 116.084 129.74 119.008 136.276C121.932 142.984 131.22 152.1 137.756 154.508C144.636 157.088 158.74 156.916 165.276 153.992C171.984 151.068 181.1 141.78 183.508 135.244C184.54 132.492 185.4 126.644 185.4 122C185.4 117.356 184.54 111.508 183.508 108.756C181.1 102.22 171.984 92.9322 165.276 90.0082C158.224 86.9122 143.088 87.0842 136.38 90.0082ZM154.44 110.82V118.56H162.18C168.716 118.56 169.92 119.076 169.92 122C169.92 124.924 168.716 125.44 162.18 125.44H154.44V133.18C154.44 139.716 153.924 140.92 151 140.92C148.076 140.92 147.56 139.716 147.56 133.18V125.44H139.82C133.284 125.44 132.08 124.924 132.08 122C132.08 119.076 133.284 118.56 139.82 118.56H147.56V110.82C147.56 104.284 148.076 103.08 151 103.08C153.924 103.08 154.44 104.284 154.44 110.82Z" fill="#FC9C09"/>
<defs>
<filter id="filter0_d_360_1411" x="0" y="0" width="216" height="214.487" filterUnits="userSpaceOnUse" color-interpolation-filters="sRGB">
<feFlood flood-opacity="0" result="BackgroundImageFix"/>
<feColorMatrix in="SourceAlpha" type="matrix" values="0 0 0 0 0 0 0 0 0 0 0 0 0 0 0 0 0 0 127 0" result="hardAlpha"/>
<feOffset dy="4"/>
<feGaussianBlur stdDeviation="2"/>
<feComposite in2="hardAlpha" operator="out"/>
<feColorMatrix type="matrix" values="0 0 0 0 0 0 0 0 0 0 0 0 0 0 0 0 0 0 0.25 0"/>
<feBlend mode="normal" in2="BackgroundImageFix" result="effect1_dropShadow_360_1411"/>
<feBlend mode="normal" in="SourceGraphic" in2="effect1_dropShadow_360_1411" result="shape"/>
</filter>
<linearGradient id="paint0_linear_360_1411" x1="108" y1="0" x2="108" y2="206.487" gradientUnits="userSpaceOnUse">
<stop offset="1" stop-color="#FFE600"/>
<stop offset="1" stop-color="#2F2E41"/>
</linearGradient>
<clipPath id="clip0_360_1411">
<rect width="108.16" height="108.16" fill="white" transform="translate(54 49)"/>
</clipPath>
</defs>
</svg>
