<svg width="1050" height="534" viewBox="0 0 1050 534" fill="none" xmlns="http://www.w3.org/2000/svg">
<g clip-path="url(#clip0_1_3)">
<path d="M1032.52 104.979C1032.52 107.289 1032.44 109.59 1032.3 111.863C1031.48 125.002 1028.27 137.863 1022.84 149.77C1022.8 149.871 1022.75 149.973 1022.71 150.065C1022.46 150.62 1022.2 151.166 1021.93 151.711C1013.68 168.848 1001.07 183.331 985.451 193.599C969.832 203.867 951.798 209.529 933.296 209.975L934.305 269.71L947.395 262.576L949.736 267.178L934.404 275.523L936.182 380.889L936.271 386.434H926.237L926.336 380.889L929.382 209.985C915.974 209.787 902.737 206.836 890.44 201.303C878.143 195.769 867.032 187.764 857.752 177.752C857.109 177.068 856.483 176.366 855.858 175.663C855.831 175.636 855.813 175.608 855.795 175.589C848.059 166.868 841.803 156.858 837.291 145.981C837.39 146.102 837.497 146.203 837.595 146.323C827.397 121.665 826.705 93.906 835.659 68.7363C844.613 43.5666 862.536 22.8923 885.754 10.9508C886.102 10.7752 886.469 10.5993 886.817 10.4147C909.783 -1.02628 936.066 -3.12503 960.458 4.53449C984.849 12.194 1005.57 29.0527 1018.51 51.7685C1019.12 52.8402 1019.72 53.9403 1020.29 55.0399C1028.33 70.37 1032.54 87.5382 1032.52 104.979Z" fill="#2F2E41"/>
<path d="M206.955 161.152C206.955 163.001 206.897 164.842 206.783 166.662C206.128 177.179 203.559 187.473 199.209 197.003C199.174 197.085 199.138 197.166 199.102 197.24C198.902 197.684 198.695 198.12 198.48 198.557C191.88 212.274 181.785 223.867 169.283 232.085C156.78 240.304 142.346 244.836 127.536 245.193L128.345 293.006L138.822 287.295L140.695 290.979L128.423 297.658L129.846 381.996L129.918 386.434H121.886L121.965 381.996L124.404 245.201C113.671 245.042 103.076 242.68 93.2337 238.251C83.3912 233.822 74.4977 227.415 67.0697 219.401C66.5549 218.853 66.0542 218.291 65.5538 217.729C65.5321 217.707 65.5178 217.685 65.5035 217.67C59.3114 210.689 54.3039 202.677 50.6926 193.971C50.7712 194.067 50.8571 194.148 50.9356 194.244C42.7732 174.507 42.2186 152.289 49.3857 132.142C56.5528 111.996 70.8986 95.448 89.483 85.8897C89.7616 85.7492 90.0549 85.6084 90.3339 85.4606C108.716 76.303 129.754 74.6231 149.277 80.754C168.801 86.8848 185.384 100.379 195.741 118.561C196.234 119.419 196.714 120.299 197.171 121.18C203.607 133.45 206.97 147.192 206.955 161.152Z" fill="#2F2E41"/>
<path d="M261.093 49.2133C260.059 49.3816 259.116 49.9269 258.437 50.7507C257.757 51.5745 257.384 52.6226 257.386 53.7057V388.708H279.375V91.9077H763.145V389.846H785.135V54.7602C785.139 53.694 784.781 52.6601 784.122 51.8401C783.463 51.02 782.546 50.4664 781.531 50.2764C523.459 4.34577 291.99 44.1907 261.093 49.2133Z" fill="#2F2E41"/>
<path d="M488.275 327.302V337.536H523.459V388.709H537.752V337.536H680.684V388.709H694.977V337.536H730.16V327.302H488.275Z" fill="#3F3D56"/>
<path d="M461.888 110.102H301.365V337.536H461.888V110.102Z" fill="#2F2E41"/>
<path d="M446.639 131.709H316.615V315.93H446.639V131.709Z" fill="#FC9C09"/>
<path d="M618.014 91.9077H604.82V327.301H618.014V91.9077Z" fill="#3F3D56"/>
<path d="M1048.9 388.708H1.09948C0.807877 388.708 0.52822 388.589 0.322028 388.375C0.115837 388.162 0 387.873 0 387.571C0 387.27 0.115837 386.98 0.322028 386.767C0.52822 386.554 0.807877 386.434 1.09948 386.434H1048.9C1049.19 386.434 1049.47 386.554 1049.68 386.767C1049.88 386.98 1050 387.27 1050 387.571C1050 387.873 1049.88 388.162 1049.68 388.375C1049.47 388.589 1049.19 388.708 1048.9 388.708Z" fill="#8B8B8B"/>
<path d="M597.016 526.306H505.759C505.468 526.306 505.188 526.186 504.982 525.972C504.776 525.759 504.66 525.47 504.66 525.168C504.66 524.867 504.776 524.578 504.982 524.364C505.188 524.151 505.468 524.031 505.759 524.031H597.016C597.307 524.031 597.587 524.151 597.793 524.364C597.999 524.578 598.115 524.867 598.115 525.168C598.115 525.47 597.999 525.759 597.793 525.972C597.587 526.186 597.307 526.306 597.016 526.306Z" fill="#8B8B8B"/>
<path d="M841.099 526.306H749.843C749.551 526.306 749.272 526.186 749.065 525.972C748.859 525.759 748.743 525.47 748.743 525.168C748.743 524.867 748.859 524.578 749.065 524.364C749.272 524.151 749.551 524.031 749.843 524.031H841.099C841.391 524.031 841.671 524.151 841.877 524.364C842.083 524.578 842.199 524.867 842.199 525.168C842.199 525.47 842.083 525.759 841.877 525.972C841.671 526.186 841.391 526.306 841.099 526.306Z" fill="#8B8B8B"/>
<path d="M130.838 526.306H39.5812C39.2896 526.306 39.0099 526.186 38.8037 525.972C38.5975 525.759 38.4817 525.47 38.4817 525.168C38.4817 524.867 38.5975 524.578 38.8037 524.364C39.0099 524.151 39.2896 524.031 39.5812 524.031H130.838C131.129 524.031 131.409 524.151 131.615 524.364C131.821 524.578 131.937 524.867 131.937 525.168C131.937 525.47 131.821 525.759 131.615 525.972C131.409 526.186 131.129 526.306 130.838 526.306Z" fill="#8B8B8B"/>
<path d="M443.183 250.391C441.791 261.674 436.671 271.997 431.209 281.941C431.028 282.28 430.842 282.613 430.652 282.952H373.883C372.734 282.644 371.601 282.305 370.472 281.941C364.061 279.922 358.007 276.842 352.548 272.821C331.662 257.258 323.626 227.849 327.256 201.498C329.513 185.126 336.46 168.411 349.988 159.594C357.334 154.966 366.098 153.378 374.527 155.147C374.743 155.188 374.957 155.238 375.177 155.284C382.251 156.931 388.554 161.024 392.14 167.618C398.588 179.467 394.748 194.146 391.578 207.334C388.417 220.523 386.702 236.308 395.877 246.035C394.532 241.967 394.259 237.602 395.086 233.389C395.912 229.176 397.809 225.266 400.58 222.062C403.352 218.858 406.898 216.476 410.855 215.159C414.812 213.842 419.036 213.639 423.094 214.57C423.758 214.717 424.413 214.883 425.058 215.085C426.617 215.558 428.119 216.208 429.538 217.026C440.359 223.276 444.742 237.672 443.183 250.391Z" fill="#2F2E41"/>
<path d="M409.522 281.941C411.095 282.32 412.673 282.654 414.261 282.952H405.677C404.553 282.638 403.435 282.305 402.326 281.941C399.888 281.153 397.487 280.248 395.125 279.228C385.54 275.203 377.031 268.857 370.311 260.724C367.081 256.743 364.443 252.286 362.485 247.5C360.361 242.091 359.012 236.39 358.479 230.578C357.282 218.653 358.503 206.399 360.785 194.687C363.139 182.547 366.94 170.756 372.099 159.584C372.72 158.245 373.361 156.914 374.024 155.592C374.07 155.483 374.139 155.386 374.226 155.309C374.313 155.232 374.416 155.177 374.527 155.147C374.753 155.102 374.987 155.151 375.177 155.284C375.406 155.419 375.576 155.641 375.651 155.902C375.727 156.164 375.702 156.445 375.583 156.688C370.263 167.419 366.23 178.781 363.574 190.523C360.839 202.04 359.637 213.889 360.003 225.742C360.482 236.748 363.262 247.571 369.569 256.57C375.446 264.75 383.177 271.311 392.081 275.675C397.65 278.431 403.5 280.533 409.522 281.941Z" fill="#D7E8CF"/>
<path d="M428.361 282.952H425.83C425.546 282.618 425.273 282.28 425.004 281.941C419.24 274.697 415.335 266.067 413.65 256.848C411.605 245.344 413.196 233.464 418.189 222.968C419.582 220.025 421.223 217.215 423.094 214.57C423.758 214.717 424.413 214.883 425.058 215.085C417.91 224.794 414.245 236.769 414.688 248.963C415.13 261.158 419.654 272.814 427.486 281.941C427.769 282.28 428.063 282.618 428.361 282.952Z" fill="#D7E8CF"/>
<path d="M112.23 281.065L111.537 281.538L163.664 363.222L164.357 362.749L112.23 281.065Z" fill="#2F2E41"/>
<path d="M80.9874 381.225H86.0736L88.4936 360.932H80.9863L80.9874 381.225Z" fill="#A0616A"/>
<path d="M79.6899 379.507L89.7073 379.507H89.7077C91.4007 379.507 93.0244 380.203 94.2216 381.441C95.4188 382.679 96.0914 384.358 96.0915 386.109V386.324L79.6903 386.325L79.6899 379.507Z" fill="#2F2E41"/>
<path d="M47.7437 376.19L52.5242 377.989L61.508 359.777L54.4538 357.121L47.7437 376.19Z" fill="#A0616A"/>
<path d="M47.0927 374.117L56.5059 377.66L56.5063 377.66C58.0972 378.259 59.3929 379.487 60.1084 381.074C60.8238 382.661 60.9005 384.477 60.3215 386.123L60.2505 386.325L44.8384 380.523L47.0927 374.117Z" fill="#2F2E41"/>
<path d="M79.5372 242.689L90.3246 246.122L99.0374 261.141L95.7182 278.735L94.0586 294.184V362.843C94.0586 362.843 81.2915 366.276 75.8505 362.843L77.8776 322.935L64.1859 365.418L48.8347 359.41L66.2604 299.762C65.9801 295.351 66.6938 290.933 68.3454 286.856C69.8404 283.226 72.4653 280.217 75.8031 278.306V274.873L72.4839 252.988L79.5372 242.689Z" fill="#2F2E41"/>
<path d="M87.7138 240.956C93.3417 240.956 97.9041 236.238 97.9041 230.417C97.9041 224.596 93.3417 219.877 87.7138 219.877C82.0858 219.877 77.5234 224.596 77.5234 230.417C77.5234 236.238 82.0858 240.956 87.7138 240.956Z" fill="#A0616A"/>
<path d="M97.5512 227.669C96.1717 227.384 94.7408 227.552 93.4581 228.149C92.1753 228.746 91.1048 229.742 90.3957 230.998C90.0458 229.665 87.9656 229.733 87.1959 230.863C86.8851 231.475 86.6942 232.145 86.6342 232.834C86.5742 233.522 86.6462 234.216 86.8462 234.876C87.2513 236.203 87.2255 237.631 86.7725 238.941C86.4491 239.516 85.9841 239.992 85.4249 240.321C84.8657 240.65 84.2323 240.82 83.589 240.813C82.2989 240.781 81.0445 240.368 79.9736 239.623C77.9785 238.354 76.3832 236.512 75.3818 234.322C74.3803 232.131 74.0159 229.687 74.3328 227.287C74.6497 224.886 75.6342 222.633 77.1667 220.801C78.6992 218.968 80.7135 217.636 82.9646 216.966C85.5231 216.355 88.1626 216.191 90.7733 216.483C92.9058 216.486 95.0218 216.869 97.0286 217.615C98.0291 217.999 98.9229 218.632 99.6315 219.457C100.34 220.282 100.842 221.275 101.092 222.348C101.453 224.517 100.226 228.401 98.106 228.592" fill="#2F2E41"/>
<path d="M81.4894 218.447C82.4133 218.288 83.31 217.991 84.1513 217.566C84.5674 217.354 84.9332 217.05 85.2229 216.675C85.5126 216.301 85.7189 215.865 85.8274 215.398C85.9127 214.933 85.828 214.452 85.5896 214.048C85.3511 213.644 84.976 213.346 84.5371 213.212C83.8651 213.154 83.1899 213.27 82.5715 213.548C82.2638 213.684 81.9279 213.738 81.5947 213.705C81.2615 213.671 80.9419 213.552 80.6651 213.357C80.1169 212.826 80.2482 211.865 79.7796 211.26C79.528 210.998 79.205 210.822 78.8539 210.755C78.5028 210.687 78.1402 210.733 77.8145 210.884C77.164 211.197 76.5833 211.646 76.109 212.203L73.5978 214.776C73.1092 215.276 72.5804 215.898 72.7046 216.58C72.8194 216.932 73.0548 217.227 73.366 217.41C73.6773 217.594 74.0429 217.653 74.3935 217.576C75.1036 217.407 75.7626 217.059 76.3126 216.565C75.525 217.072 74.8907 217.798 74.4817 218.659C74.2864 219.083 74.2082 219.555 74.2559 220.023C74.3036 220.49 74.4752 220.935 74.7519 221.308C75.6486 222.377 77.3489 222.231 78.6542 221.697C80.3793 220.991 81.8729 219.789 82.9584 218.233" fill="#2F2E41"/>
<path d="M81.51 215.328C79.2976 214.914 77.195 214.02 75.341 212.705C73.7434 211.406 72.9478 209.5 73.8545 207.899C73.3968 208.711 73.1757 209.643 73.2177 210.583C73.2597 211.522 73.563 212.429 74.0913 213.195C75.469 215.029 77.4482 216.279 79.6557 216.708C80.1215 216.857 80.6203 216.856 81.0853 216.704C81.4996 216.513 81.5131 215.952 81.0303 215.879" fill="#2F2E41"/>
<path d="M110.069 277.371C109.87 277.49 109.68 277.624 109.502 277.773L89.8589 271.436L88.7543 266.394L81.179 267.123L82.2958 276.246C82.386 276.983 82.705 277.67 83.2047 278.204C83.7045 278.737 84.3581 279.089 85.0675 279.205L108.186 283.007C108.523 283.853 109.101 284.573 109.843 285.071C110.585 285.569 111.456 285.821 112.34 285.795C113.224 285.768 114.079 285.464 114.792 284.922C115.505 284.381 116.041 283.628 116.33 282.763C116.619 281.899 116.646 280.964 116.409 280.082C116.171 279.201 115.68 278.416 115 277.83C114.321 277.245 113.485 276.888 112.604 276.806C111.723 276.724 110.839 276.921 110.069 277.371V277.371Z" fill="#A0616A"/>
<path d="M80.3671 249.984C80.3671 249.984 82.1418 244.739 87.478 245.216C92.8141 245.693 89.9098 266.72 89.9098 266.72L79.5374 281.31L80.3671 249.984Z" fill="#2F2E41"/>
<path d="M139.638 380.739L135.928 372.527L141.661 369.756L145.371 377.967V377.968C145.727 378.754 145.765 379.654 145.479 380.47C145.193 381.286 144.605 381.951 143.844 382.318C143.084 382.686 142.213 382.726 141.425 382.43C140.636 382.133 139.993 381.525 139.638 380.739H139.638Z" fill="#3F3D56"/>
<path d="M126.872 363.168C129.023 363.168 130.767 361.364 130.767 359.139C130.767 356.915 129.023 355.111 126.872 355.111C124.721 355.111 122.978 356.915 122.978 359.139C122.978 361.364 124.721 363.168 126.872 363.168Z" fill="#3F3D56"/>
<path d="M156.7 382.379L152.99 374.168L158.723 371.397L162.433 379.608C162.789 380.394 162.827 381.295 162.541 382.11C162.255 382.926 161.667 383.591 160.906 383.959C160.146 384.326 159.276 384.366 158.487 384.07C157.698 383.774 157.055 383.166 156.7 382.379Z" fill="#3F3D56"/>
<path d="M126.883 367.291C127.088 365.031 128.152 362.948 129.84 361.499C131.529 360.05 133.704 359.352 135.889 359.56L161.976 362.068C162.899 362.158 163.75 362.623 164.343 363.361C164.935 364.1 165.22 365.051 165.135 366.006L164.859 369.076C164.609 371.826 163.314 374.361 161.259 376.125C159.204 377.889 156.556 378.738 153.897 378.485L134.357 376.606C132.173 376.394 130.159 375.293 128.758 373.547C127.356 371.8 126.682 369.551 126.883 367.291Z" fill="#3F3D56"/>
<path d="M131.719 380.99L132.53 371.966L138.832 372.572L138.021 381.596C137.942 382.46 137.536 383.256 136.89 383.81C136.244 384.364 135.412 384.63 134.577 384.55C133.742 384.469 132.972 384.049 132.436 383.382C131.9 382.714 131.642 381.854 131.719 380.99Z" fill="#3F3D56"/>
<path d="M150.005 382.748L150.816 373.724L157.118 374.33L156.306 383.354C156.229 384.219 155.822 385.016 155.176 385.57C154.531 386.124 153.698 386.391 152.863 386.31C152.027 386.23 151.256 385.81 150.721 385.142C150.185 384.474 149.927 383.613 150.005 382.748Z" fill="#3F3D56"/>
<path d="M178.853 349.509C179.572 348.742 180.556 348.301 181.589 348.284C182.621 348.267 183.618 348.674 184.36 349.418C185.102 350.161 185.529 351.179 185.545 352.247C185.562 353.315 185.167 354.346 184.449 355.114L177.336 362.71L171.741 357.105L178.853 349.509Z" fill="#3F3D56"/>
<path d="M162.045 364.203L167.742 358.118C169.128 356.642 171.022 355.795 173.011 355.762C174.999 355.729 176.919 356.513 178.349 357.942L179.825 359.421C181.527 361.129 182.504 363.465 182.542 365.918C182.58 368.37 181.676 370.737 180.028 372.501L175.334 377.514C174.815 378.067 174.106 378.384 173.361 378.397C172.617 378.409 171.898 378.115 171.363 377.58L162.108 368.311C161.574 367.774 161.267 367.041 161.255 366.271C161.243 365.501 161.527 364.757 162.045 364.203Z" fill="#3F3D56"/>
<path d="M179.7 348.605C179.944 348.343 180.236 348.134 180.559 347.989C180.882 347.844 181.229 347.766 181.581 347.76C181.933 347.754 182.283 347.819 182.61 347.953C182.937 348.087 183.236 348.286 183.489 348.539C183.741 348.792 183.944 349.095 184.083 349.429C184.223 349.763 184.298 350.122 184.303 350.486C184.309 350.85 184.245 351.212 184.115 351.55C183.985 351.888 183.792 352.197 183.547 352.458L175.588 360.958L171.741 357.105L179.7 348.605Z" fill="#3F3D56"/>
<path d="M168.101 362.977L178.243 373.135C178.611 373.503 178.905 373.943 179.109 374.428C179.313 374.914 179.422 375.436 179.431 375.965C179.439 376.495 179.347 377.021 179.159 377.513C178.971 378.005 178.691 378.455 178.334 378.835C177.978 379.215 177.553 379.519 177.083 379.729C176.614 379.94 176.109 380.052 175.597 380.06C175.085 380.068 174.577 379.972 174.101 379.777C173.625 379.582 173.191 379.291 172.824 378.923L162.682 368.764L168.101 362.977Z" fill="#3F3D56"/>
<path d="M178.774 379.174C179.405 378.499 179.623 377.659 179.261 377.296C178.899 376.933 178.093 377.186 177.462 377.86C176.831 378.534 176.613 379.375 176.975 379.738C177.337 380.1 178.142 379.848 178.774 379.174Z" fill="#01BF71"/>
<path d="M163.139 372.927H165.214V360.912H163.139V372.927Z" fill="#2F2E41"/>
<path d="M598.963 266.139C605.858 266.139 611.447 260.358 611.447 253.228C611.447 246.097 605.858 240.316 598.963 240.316C592.069 240.316 586.48 246.097 586.48 253.228C586.48 260.358 592.069 266.139 598.963 266.139Z" fill="#2F2E41"/>
<path d="M567.896 363.7H562.429L559.829 341.895H567.896L567.896 363.7Z" fill="#FEB8B8"/>
<path d="M558.526 362.084H569.067V368.949H551.889C551.889 368.048 552.06 367.155 552.394 366.322C552.727 365.489 553.216 364.733 553.833 364.095C554.449 363.458 555.181 362.952 555.986 362.607C556.791 362.262 557.654 362.084 558.526 362.084Z" fill="#2F2E41"/>
<path d="M559.364 360.545L554.149 358.852L557.98 337.241L565.677 339.739L559.364 360.545Z" fill="#FEB8B8"/>
<path d="M550.888 356.103L560.946 359.367L558.959 365.917L542.568 360.597C543.095 358.86 544.268 357.411 545.828 356.568C547.389 355.725 549.209 355.558 550.889 356.103L550.888 356.103Z" fill="#2F2E41"/>
<path d="M561.142 351.843C560.903 351.843 560.666 351.799 560.443 351.712L556.42 350.153C555.969 349.976 555.594 349.637 555.364 349.199C555.133 348.76 555.063 348.25 555.166 347.762C556.178 343.054 559.629 327.025 561.518 318.427C563.759 308.23 596.447 306.335 597.837 306.259L597.951 306.253L601.629 311.03C602.957 315.447 602.536 318.893 600.377 321.271C594.076 328.209 575.263 323.904 573.02 323.359L563.022 350.507C562.876 350.901 562.619 351.239 562.283 351.477C561.948 351.716 561.55 351.843 561.143 351.843H561.142Z" fill="#2F2E41"/>
<path d="M566.938 355.072C566.699 355.072 566.463 355.027 566.239 354.94L562.218 353.38C561.766 353.204 561.391 352.865 561.161 352.426C560.931 351.988 560.86 351.478 560.963 350.99C561.976 346.282 565.426 330.253 567.315 321.655C569.556 311.457 602.244 309.562 603.634 309.487L603.749 309.48L607.425 314.259C608.753 318.676 608.332 322.122 606.173 324.5C599.872 331.437 581.06 327.133 578.816 326.588L568.817 353.735C568.671 354.128 568.413 354.466 568.078 354.705C567.743 354.944 567.345 355.071 566.938 355.071L566.938 355.072Z" fill="#2F2E41"/>
<path d="M555.304 288.659C555.452 288.863 555.584 289.079 555.699 289.305L577.688 291.701L580.854 287.212L588.028 291.267L581.811 302.16L554.843 295.048C554.162 295.734 553.296 296.19 552.359 296.354C551.422 296.519 550.459 296.384 549.598 295.969C548.737 295.554 548.018 294.877 547.538 294.029C547.058 293.181 546.838 292.202 546.909 291.221C546.98 290.241 547.338 289.307 547.935 288.542C548.532 287.777 549.34 287.219 550.251 286.941C551.162 286.662 552.134 286.678 553.037 286.984C553.94 287.291 554.731 287.875 555.305 288.658L555.304 288.659Z" fill="#FEB8B8"/>
<path d="M606.404 316.088C606.086 316.088 605.773 316.009 605.49 315.858C601.093 313.546 592.531 309.541 584.591 308.703C584.319 308.675 584.056 308.589 583.819 308.45C583.581 308.312 583.374 308.123 583.211 307.896C583.045 307.667 582.926 307.405 582.862 307.127C582.798 306.848 582.79 306.559 582.839 306.277C583.556 302.175 585.199 291.73 584.987 283.359C584.925 280.785 585.711 278.265 587.217 276.215C588.723 274.164 590.858 272.705 593.272 272.076C594.725 271.679 596.201 271.378 597.69 271.175C599.403 270.95 601.143 271.144 602.77 271.74C604.397 272.336 605.867 273.318 607.062 274.608C608.256 275.897 609.142 277.457 609.648 279.164C610.155 280.871 610.267 282.677 609.977 284.438C608.562 293.113 607.134 305.23 608.375 313.688C608.432 314.067 608.386 314.455 608.243 314.809C608.1 315.163 607.865 315.469 607.564 315.694C607.227 315.949 606.821 316.087 606.404 316.088Z" fill="#FC9C09"/>
<path d="M585.395 294.022C585.121 294.022 584.85 293.963 584.598 293.85L578.87 291.286C578.382 291.067 577.998 290.657 577.802 290.145C577.607 289.634 577.615 289.063 577.826 288.557L582.254 277.978C582.785 276.683 583.792 275.66 585.052 275.133C586.313 274.606 587.725 274.619 588.976 275.168C590.228 275.717 591.218 276.759 591.727 278.063C592.237 279.367 592.224 280.827 591.693 282.121L591.664 282.191L587.236 292.77C587.08 293.142 586.823 293.458 586.496 293.68C586.169 293.903 585.786 294.022 585.395 294.022Z" fill="#FC9C09"/>
<path d="M598.507 267.576C604.555 267.576 609.458 262.505 609.458 256.25C609.458 249.995 604.555 244.924 598.507 244.924C592.459 244.924 587.557 249.995 587.557 256.25C587.557 262.505 592.459 267.576 598.507 267.576Z" fill="#FEB8B8"/>
<path d="M587.36 250.684C592.546 253.959 598.394 255.952 604.447 256.508L602.646 254.276C603.957 254.777 605.337 255.061 606.734 255.115C607.434 255.136 608.129 254.987 608.763 254.68C609.396 254.374 609.952 253.917 610.385 253.348C610.738 252.758 610.947 252.087 610.996 251.395C611.045 250.702 610.93 250.007 610.663 249.37C610.114 248.099 609.26 246.994 608.182 246.16C606.27 244.596 604.014 243.546 601.615 243.102C599.215 242.659 596.747 242.836 594.43 243.618C592.84 244.11 591.417 245.054 590.322 246.344C589.284 247.668 587.286 248.848 587.817 250.462L587.36 250.684Z" fill="#2F2E41"/>
<path d="M599.486 241.143C601.669 238.853 604.31 237.086 607.224 235.966C609.074 235.161 611.103 234.901 613.087 235.214C614.074 235.385 614.998 235.827 615.764 236.494C616.529 237.16 617.107 238.028 617.438 239.005C617.773 240.673 617.522 242.409 616.731 243.903C616.039 245.432 615.114 246.848 614.554 248.432C613.983 250.049 613.811 251.788 614.054 253.491C614.297 255.194 614.948 256.807 615.947 258.184C616.946 259.561 618.262 260.659 619.775 261.376C621.288 262.094 622.95 262.409 624.611 262.294C622.723 262.747 620.863 263.314 619.04 263.991C617.162 264.488 614.945 264.455 613.549 263.063C612.072 261.59 612.043 259.196 612.114 257.076L612.432 247.62C612.59 246.015 612.433 244.394 611.972 242.853C611.728 242.087 611.271 241.412 610.657 240.914C610.044 240.416 609.302 240.116 608.524 240.053C607.345 240.189 606.237 240.706 605.357 241.53C604.48 242.353 603.401 242.911 602.238 243.143C601.064 243.252 599.724 242.354 599.811 241.138" fill="#2F2E41"/>
<path d="M580.096 313.179C579.371 313.178 578.655 313.01 577.999 312.689C577.344 312.367 576.765 311.899 576.306 311.318C575.846 310.737 575.517 310.059 575.342 309.33C575.166 308.602 575.149 307.843 575.292 307.107C575.435 306.371 575.733 305.677 576.166 305.075C576.599 304.473 577.156 303.978 577.797 303.625C578.437 303.273 579.145 303.071 579.87 303.036C580.595 303 581.318 303.131 581.988 303.419C582.189 303.507 582.385 303.61 582.572 303.726L602.52 294.464L603.08 288.869L611.679 288.631L611.622 297.946C611.612 299.025 611.265 300.072 610.634 300.932C610.002 301.791 609.12 302.417 608.117 302.716L584.79 309.582C584.745 309.742 584.692 309.899 584.631 310.052C584.257 310.977 583.627 311.767 582.821 312.323C582.015 312.879 581.068 313.176 580.099 313.178L580.096 313.179Z" fill="#FEB8B8"/>
<path d="M610.951 293.195C610.706 293.323 610.439 293.398 610.165 293.415L603.935 293.811C603.404 293.844 602.882 293.658 602.484 293.294C602.085 292.929 601.843 292.416 601.81 291.867L601.126 280.361C601.085 279.666 601.176 278.969 601.395 278.31C601.614 277.652 601.956 277.044 602.402 276.523C602.848 276.001 603.389 275.575 603.994 275.269C604.599 274.964 605.257 274.785 605.929 274.742C606.601 274.699 607.274 274.794 607.911 275.02C608.548 275.247 609.135 275.601 609.64 276.062C610.144 276.523 610.556 277.083 610.851 277.709C611.147 278.334 611.32 279.014 611.361 279.709L612.045 291.216C612.069 291.62 611.978 292.023 611.784 292.374C611.59 292.726 611.3 293.011 610.951 293.195H610.951Z" fill="#FC9C09"/>
<path d="M598.406 311.114H561.193C560.881 311.114 560.628 311.376 560.628 311.699V313.757C560.628 314.08 560.881 314.342 561.193 314.342H598.406C598.718 314.342 598.971 314.08 598.971 313.757V311.699C598.971 311.376 598.718 311.114 598.406 311.114Z" fill="#3F3D56"/>
<path d="M546.33 311.345V288.749C546.331 287.955 546.636 287.193 547.179 286.631C547.723 286.069 548.459 285.753 549.228 285.752H588.908C589.676 285.753 590.413 286.069 590.956 286.631C591.499 287.193 591.805 287.955 591.806 288.749V311.345C591.805 312.14 591.499 312.901 590.956 313.463C590.413 314.025 589.676 314.341 588.908 314.342H549.228C548.459 314.341 547.723 314.025 547.179 313.463C546.636 312.901 546.331 312.14 546.33 311.345Z" fill="#3F3D56"/>
<path d="M569.545 302.815C571.022 302.815 572.22 301.576 572.22 300.048C572.22 298.52 571.022 297.281 569.545 297.281C568.068 297.281 566.87 298.52 566.87 300.048C566.87 301.576 568.068 302.815 569.545 302.815Z" fill="#D7E8CF"/>
<path d="M533.591 38.4608H508.929C507.972 38.4619 507.054 38.8558 506.377 39.556C505.7 40.2563 505.319 41.2057 505.318 42.1959V67.7035C505.319 68.6938 505.7 69.6432 506.377 70.3434C507.054 71.0436 507.972 71.4375 508.929 71.4386H511.64V73.1444C511.64 73.5967 511.813 74.0306 512.123 74.3505C512.432 74.6704 512.851 74.8501 513.289 74.8501C513.726 74.8501 514.146 74.6704 514.455 74.3505C514.764 74.0306 514.938 73.5967 514.938 73.1444V71.4386H528.407V73.1444C528.407 73.5967 528.58 74.0306 528.89 74.3505C529.199 74.6704 529.618 74.8501 530.056 74.8501C530.493 74.8501 530.913 74.6704 531.222 74.3505C531.531 74.0306 531.705 73.5967 531.705 73.1444V71.4386H533.591C534.548 71.4375 535.466 71.0436 536.143 70.3434C536.82 69.6432 537.201 68.6938 537.202 67.7035V42.1959C537.201 41.2057 536.82 40.2563 536.143 39.556C535.466 38.8558 534.548 38.4619 533.591 38.4608Z" fill="#FC9C09"/>
<path d="M533.728 41.1463H508.384V58.1833H533.728V41.1463Z" fill="#2F2E41"/>
<path d="M513.289 68.6905C515.546 68.6905 517.377 66.7976 517.377 64.4626C517.377 62.1275 515.546 60.2346 513.289 60.2346C511.031 60.2346 509.201 62.1275 509.201 64.4626C509.201 66.7976 511.031 68.6905 513.289 68.6905Z" fill="#2F2E41"/>
<path d="M529.64 68.6905C531.898 68.6905 533.728 66.7976 533.728 64.4626C533.728 62.1275 531.898 60.2346 529.64 60.2346C527.382 60.2346 525.552 62.1275 525.552 64.4626C525.552 66.7976 527.382 68.6905 529.64 68.6905Z" fill="#2F2E41"/>
<path d="M349.672 525.915H258.415C258.124 525.915 257.844 525.795 257.638 525.581C257.432 525.368 257.316 525.079 257.316 524.777C257.316 524.476 257.432 524.186 257.638 523.973C257.844 523.76 258.124 523.64 258.415 523.64H349.672C349.964 523.64 350.243 523.76 350.449 523.973C350.656 524.186 350.771 524.476 350.771 524.777C350.771 525.079 350.656 525.368 350.449 525.581C350.243 525.795 349.964 525.915 349.672 525.915Z" fill="#8B8B8B"/>
</g>
<defs>
<clipPath id="clip0_1_3">
<rect width="1050" height="534" fill="white"/>
</clipPath>
</defs>
</svg>
