<svg width="216" height="215" viewBox="0 0 216 215" fill="none" xmlns="http://www.w3.org/2000/svg">
<g filter="url(#filter0_d_345_1381)">
<ellipse cx="108" cy="103.244" rx="104" ry="103.244" fill="white"/>
<path d="M211.5 103.244C211.5 159.984 165.165 205.987 108 205.987C50.8351 205.987 4.5 159.984 4.5 103.244C4.5 46.5033 50.8351 0.5 108 0.5C165.165 0.5 211.5 46.5033 211.5 103.244Z" stroke="url(#paint0_linear_345_1381)"/>
</g>
<g clip-path="url(#clip0_345_1381)">
<path d="M108.08 103.08C123.014 103.08 135.12 90.9738 135.12 76.04C135.12 61.1062 123.014 49 108.08 49C93.1463 49 81.04 61.1062 81.04 76.04C81.04 90.9738 93.1463 103.08 108.08 103.08Z" fill="#2F2E41"/>
<path d="M108.08 112.094C85.6896 112.119 67.5449 130.263 67.52 152.654C67.52 155.143 69.5377 157.16 72.0266 157.16H144.133C146.622 157.16 148.64 155.143 148.64 152.654C148.615 130.263 130.47 112.118 108.08 112.094Z" fill="#2F2E41"/>
</g>
<defs>
<filter id="filter0_d_345_1381" x="0" y="0" width="216" height="214.487" filterUnits="userSpaceOnUse" color-interpolation-filters="sRGB">
<feFlood flood-opacity="0" result="BackgroundImageFix"/>
<feColorMatrix in="SourceAlpha" type="matrix" values="0 0 0 0 0 0 0 0 0 0 0 0 0 0 0 0 0 0 127 0" result="hardAlpha"/>
<feOffset dy="4"/>
<feGaussianBlur stdDeviation="2"/>
<feComposite in2="hardAlpha" operator="out"/>
<feColorMatrix type="matrix" values="0 0 0 0 0 0 0 0 0 0 0 0 0 0 0 0 0 0 0.25 0"/>
<feBlend mode="normal" in2="BackgroundImageFix" result="effect1_dropShadow_345_1381"/>
<feBlend mode="normal" in="SourceGraphic" in2="effect1_dropShadow_345_1381" result="shape"/>
</filter>
<linearGradient id="paint0_linear_345_1381" x1="108" y1="0" x2="108" y2="206.487" gradientUnits="userSpaceOnUse">
<stop offset="1" stop-color="#2F2E41" stop-opacity="0.29"/>
<stop offset="1" stop-color="#2F2E41"/>
</linearGradient>
<clipPath id="clip0_345_1381">
<rect width="108.16" height="108.16" fill="white" transform="translate(54 49)"/>
</clipPath>
</defs>
</svg>
